<?xml version="1.0" encoding="utf-8"?>
<!-- Generator: Adobe Illustrator 16.0.0, SVG Export Plug-In . SVG Version: 6.00 Build 0)  -->
<!DOCTYPE svg PUBLIC "-//W3C//DTD SVG 1.1//EN" "http://www.w3.org/Graphics/SVG/1.1/DTD/svg11.dtd">
<svg version="1.1" id="Layer_1" xmlns="http://www.w3.org/2000/svg" xmlns:xlink="http://www.w3.org/1999/xlink" x="0px" y="0px"
	 width="18px" height="14px" viewBox="0 0 18 14" enable-background="new 0 0 18 14" xml:space="preserve">
<path fill="#999999" d="M18,2.5C18,3.329,17.328,4,16.5,4h-15C0.671,4,0,3.329,0,2.5l0,0C0,1.671,0.671,1,1.5,1h15
	C17.328,1,18,1.671,18,2.5L18,2.5z"/>
<path fill="#999999" d="M18,12.5c0,0.828-0.672,1.5-1.5,1.5h-15C0.671,14,0,13.328,0,12.5l0,0C0,11.672,0.671,11,1.5,11h15
	C17.328,11,18,11.672,18,12.5L18,12.5z"/>
<path fill="#999999" d="M18,7.5C18,8.328,17.328,9,16.5,9h-15C0.671,9,0,8.328,0,7.5l0,0C0,6.672,0.671,6,1.5,6h15
	C17.328,6,18,6.672,18,7.5L18,7.5z"/>
<path fill="#CCCCCC" d="M18,1.5C18,2.329,17.328,3,16.5,3h-15C0.671,3,0,2.329,0,1.5l0,0C0,0.671,0.671,0,1.5,0h15
	C17.328,0,18,0.671,18,1.5L18,1.5z"/>
<path fill="#CCCCCC" d="M18,11.5c0,0.828-0.672,1.5-1.5,1.5h-15C0.671,13,0,12.328,0,11.5l0,0C0,10.672,0.671,10,1.5,10h15
	C17.328,10,18,10.672,18,11.5L18,11.5z"/>
<path fill="#CCCCCC" d="M18,6.5C18,7.328,17.328,8,16.5,8h-15C0.671,8,0,7.328,0,6.5l0,0C0,5.672,0.671,5,1.5,5h15
	C17.328,5,18,5.672,18,6.5L18,6.5z"/>
</svg>
